<svg width="20" height="20" viewBox="0 0 20 20"  xmlns="http://www.w3.org/2000/svg">
<g id="Frame" clip-path="url(#clip0_67_813)">
<path id="Vector" opacity="0.01" d="M0 0H20V20H0V0Z" />
<path id="Vector_2" d="M10.9048 14.5822C12.4652 13.3838 15.5 10.7671 15.5 8.50622C15.5 5.464 13.039 3 10 3C6.96213 3 4.5 5.46667 4.5 8.50622C4.5 10.7658 7.53623 13.3851 9.09519 14.5809C7.35906 14.7111 5.7224 15.1969 5.7224 15.7736C5.7224 16.4513 7.97694 17 10.003 17C12.0275 17 14.2849 16.4498 14.2849 15.7736C14.2834 15.194 12.644 14.7109 10.9048 14.5822ZM8.16721 7.94067C8.16721 6.92422 8.98847 6.10089 10 6.10089C11.0146 6.10089 11.8328 6.92556 11.8328 7.94067C11.8328 8.95556 11.0129 9.77889 10 9.77889C8.98706 9.77889 8.16721 8.95556 8.16721 7.94067ZM10.003 15.7736C8.65168 15.7736 6.94645 15.4991 6.94645 15.1589C6.94645 14.8944 7.99449 14.6678 9.09964 14.5822C9.63981 14.9951 10.0014 15.2389 10.0014 15.2389C10.0014 15.2389 10.3644 14.9951 10.9032 14.5822C12.0086 14.6676 13.0596 14.8944 13.0596 15.1591C13.061 15.4978 11.3542 15.7736 10.003 15.7736Z" />
</g>
<defs>
<clipPath id="clip0_67_813">
<rect width="20" height="20" />
</clipPath>
</defs>
</svg>
