<?xml version="1.0" encoding="UTF-8"?>
<svg width="25px" height="25px" viewBox="0 0 25 25" version="1.1" xmlns="http://www.w3.org/2000/svg" xmlns:xlink="http://www.w3.org/1999/xlink">
    <title>编组</title>
    <g id="企业后台（中控/代理）" stroke="none" stroke-width="1" fill-rule="evenodd">
        <g id="代理后台-费用管理-账户信息" transform="translate(-352.000000, -260.000000)" fill="#000000" fill-rule="nonzero">
            <g id="编组-8" transform="translate(312.000000, 216.000000)">
                <g id="编组-4" transform="translate(20.000000, 24.000000)">
                    <g id="编组" transform="translate(20.000000, 20.000000)">
                        <path d="M12.5,0 C19.4035594,0 25,5.59644063 25,12.5 C25,19.4035594 19.4035594,25 12.5,25 C5.59644063,25 0,19.4035594 0,12.5 C0,5.59644063 5.59644063,0 12.5,0 L12.5,0 Z M12.5,1.1111111 C8.43114183,1.1111111 4.6713618,3.28182096 2.63693269,6.80555548 C0.602503585,10.32929 0.602503585,14.67071 2.63693269,18.1944445 C4.6713618,21.718179 8.43114183,23.8888889 12.5,23.8888889 C18.7899097,23.8888889 23.8888889,18.7899097 23.8888889,12.5 C23.8888889,6.21009034 18.7899097,1.1111111 12.5,1.1111111 L12.5,1.1111111 Z M12.4875,4.16666623 C14.454773,4.16577322 16.1546272,5.54096329 16.5645844,7.46504718 C16.9745417,9.38913108 15.9828875,11.3377906 14.1861111,12.1388889 C17.5883609,12.9238589 19.9988567,15.9528144 20,19.4444445 C20,19.7512693 19.7512693,20 19.4444445,20 C19.1376196,20 18.8888889,19.7512693 18.8888889,19.4444445 C18.8850555,15.9132081 16.0201266,13.053253 12.4888889,13.0555556 C9.15236588,13.0544774 6.37556933,15.6184185 6.11111109,18.9444444 C6.09597693,19.1424291 5.97636882,19.3173005 5.79734197,19.4031863 C5.61831513,19.4890721 5.40706798,19.4729241 5.2431753,19.3608252 C5.07928262,19.2487263 4.98764359,19.0577069 5.00277776,18.8597222 C5.26018747,15.5959444 7.60342193,12.8755667 10.7930556,12.1375 C8.99899604,11.3358599 8.00886239,9.38974646 8.41713532,7.46761493 C8.82540825,5.5454834 10.5211006,4.16985644 12.4861111,4.16666623 L12.4875,4.16666623 Z M12.4875,5.27777777 C10.7999632,5.27777777 9.43194442,6.64579659 9.43194442,8.33333333 C9.43194442,10.0208701 10.7999632,11.3888889 12.4875,11.3888889 C14.1750367,11.3888889 15.5430555,10.02087 15.5430555,8.33333333 C15.5430555,6.64579662 14.1750367,5.27777777 12.4875,5.27777777 L12.4875,5.27777777 Z" id="形状"></path>
                    </g>
                </g>
            </g>
        </g>
    </g>
</svg>