<svg width="20" height="20" viewBox="0 0 20 20" xmlns="http://www.w3.org/2000/svg">
<g id="Frame">
<path id="Vector" d="M15.2144 4.48554H13.2542C12.9568 3.00469 11.4322 3 10.178 3C8.92377 3 7.39767 3.00469 7.10026 4.48554H4.78708C4.35299 4.48554 4 4.85301 4 5.30493V16.1806C4 16.6325 4.35299 17 4.78708 17H15.2129C15.647 17 16 16.6325 16 16.1806V5.30493C16 4.85301 15.6485 4.48554 15.2144 4.48554ZM7.98949 5.04066C7.98949 5.01876 7.99099 5 7.99099 4.97811C8.01352 4.11024 8.49568 3.98358 10.1765 3.98358C11.8573 3.98358 12.3395 4.11181 12.362 4.97811C12.362 4.99844 12.3635 5.01876 12.3635 5.04066V5.53167H7.98949V5.04066ZM10.178 14.2979H6.64514C6.38378 14.2979 6.17349 14.0774 6.17349 13.8069C6.17349 13.5364 6.38528 13.3159 6.64514 13.3159H10.178C10.4394 13.3159 10.6496 13.5364 10.6496 13.8069C10.6496 14.0774 10.4394 14.2979 10.178 14.2979ZM11.9504 11.6771H6.64514C6.38378 11.6771 6.17349 11.4566 6.17349 11.1861C6.17349 10.9156 6.38528 10.6951 6.64514 10.6951H11.9504C12.2118 10.6951 12.4221 10.9156 12.4221 11.1861C12.4221 11.4566 12.2103 11.6771 11.9504 11.6771ZM13.7259 9.27365H6.64514C6.38378 9.27365 6.17349 9.05317 6.17349 8.78264C6.17349 8.51212 6.38528 8.29163 6.64514 8.29163H13.7274C13.9887 8.29163 14.199 8.51212 14.199 8.78264C14.199 9.05317 13.9872 9.27365 13.7259 9.27365Z"/>
</g>
</svg>
