<?xml version="1.0" encoding="UTF-8"?>
<svg width="18px" height="18px" viewBox="0 0 18 18" version="1.1" xmlns="http://www.w3.org/2000/svg" xmlns:xlink="http://www.w3.org/1999/xlink">
    <title>编组</title>
    <defs>
        <polygon id="path-1" points="0 -9.58523386e-16 18 -9.58523386e-16 18 7.47060975 0 7.47060975"></polygon>
    </defs>
    <g id="企业后台（中控/代理）" stroke="none" stroke-width="1" fill-rule="evenodd">
        <g id="代理后台-企业管理-我的邀请" transform="translate(-40.000000, -184.000000)">
            <g id="编组" transform="translate(40.000000, 184.000000)">
                <path d="M8.76322321,8.72210564 C11.1676839,8.72210564 13.124276,6.76551352 13.124276,4.36105282 C13.124276,1.95659212 11.1676839,0 8.76322321,0 C6.35876252,0 4.40217039,1.95659212 4.40217039,4.36105282 C4.40217039,6.76551352 6.35876252,8.72210564 8.76322321,8.72210564" id="Fill-1" fill="#FFFFFF"></path>
                <g transform="translate(0.000000, 9.666946)">
                    <mask id="mask-2" fill="white">
                        <use xlink:href="#path-1"></use>
                    </mask>
                    <g id="Clip-4"></g>
                    <path d="M14.2646142,-9.58523386e-16 L3.73484621,-9.58523386e-16 C1.67572996,-9.58523386e-16 -0.000269800348,1.67546016 -0.000269800348,3.73565561 C-0.000269800348,5.79477187 1.67572996,7.47077163 3.73484621,7.47077163 L14.2646142,7.47077163 C16.32427,7.47077163 18.0002698,5.79477187 18.0002698,3.73565561 C18.0002698,1.67546016 16.32427,-9.58523386e-16 14.2646142,-9.58523386e-16" id="Fill-3" fill="#FFFFFF" mask="url(#mask-2)"></path>
                </g>
            </g>
        </g>
    </g>
</svg>