<?xml version="1.0" encoding="UTF-8"?>
<svg width="18px" height="18px" viewBox="0 0 18 18" version="1.1" xmlns="http://www.w3.org/2000/svg" xmlns:xlink="http://www.w3.org/1999/xlink">
    <title>编组</title>
    <defs>
        <polygon id="path-1" points="0 0 11.0413239 0 11.0413239 4.52187167 0 4.52187167"></polygon>
        <polygon id="path-3" points="0 0 18 0 18 12.0316946 0 12.0316946"></polygon>
    </defs>
    <g id="企业后台（中控/代理）" stroke="none" stroke-width="1" fill-rule="evenodd">
        <g id="代理后台-企业管理-我的邀请" transform="translate(-40.000000, -326.000000)">
            <g id="编组-4" transform="translate(0.000000, 297.000000)">
                <g id="编组" transform="translate(40.000000, 29.000000)">
                    <g transform="translate(3.477354, 0.000000)">
                        <mask id="mask-2" fill="white">
                            <use xlink:href="#path-1"></use>
                        </mask>
                        <g id="Clip-2"></g>
                        <path d="M9.73531404,0.174634666 C9.51659731,0.112213297 9.08255105,0.267057002 8.83722056,0.5302913 C8.51204878,0.839494822 8.17042485,0.933852705 7.51330688,0.933852705 C6.91086809,0.933852705 6.42649763,0.554485629 6.05487274,0.216732798 C5.89809349,0.0739862576 5.70937772,0.00382270396 5.52066196,-4.83886577e-05 C5.32952676,0.00382270396 5.14081099,0.0739862576 4.98596729,0.216732798 C4.61676183,0.554485629 4.13045582,0.933852705 3.52753315,0.933852705 C2.87089906,0.933852705 2.53121068,0.839494822 2.20361947,0.5302913 C1.95877286,0.267057002 1.52666215,0.112213297 1.30600987,0.174634666 C0.355656634,0.443675602 0,1.15305332 0,2.47261202 C0,3.99153198 0.950353237,4.52187167 2.11119714,4.52187167 L8.92964289,4.52187167 C10.0909707,4.52187167 11.0413239,3.99153198 11.0413239,2.47261202 C11.0413239,1.15305332 10.6856673,0.443675602 9.73531404,0.174634666" id="Fill-1" fill="#FFFFFF" mask="url(#mask-2)"></path>
                    </g>
                    <g transform="translate(0.000000, 5.325317)">
                        <mask id="mask-4" fill="white">
                            <use xlink:href="#path-3"></use>
                        </mask>
                        <g id="Clip-4"></g>
                        <path d="M11.1777799,3.27107326 L10.0861318,5.19210297 L10.8956741,5.19210297 C10.9479338,5.19210297 10.9905158,5.23468499 10.9905158,5.28742863 L10.9905158,5.95954708 C10.9905158,6.01180683 10.9479338,6.05438885 10.8956741,6.05438885 L9.63369786,6.05438885 L9.63369786,6.54940482 L10.8942224,6.54940482 C10.9464821,6.54940482 10.9890642,6.59198684 10.9890642,6.64424659 L10.9890642,7.31636504 C10.9890642,7.36862479 10.9464821,7.41120681 10.8942224,7.41120681 L9.63369786,7.41120681 L9.63369786,8.70705507 C9.63369786,8.7597987 9.59111584,8.80238072 9.53885609,8.80238072 L8.49075777,8.80238072 C8.43849802,8.80238072 8.395916,8.7597987 8.395916,8.70705507 L8.395916,7.41411013 L7.17652182,7.41411013 C7.12377819,7.41411013 7.08119617,7.37152811 7.08119617,7.31926836 L7.08119617,6.64714991 C7.08119617,6.59440627 7.12377819,6.55182425 7.17652182,6.55182425 L8.395916,6.55182425 L8.395916,6.05729217 L7.17652182,6.05729217 C7.12377819,6.05729217 7.08119617,6.01471015 7.08119617,5.9624504 L7.08119617,5.29033195 C7.08119617,5.23613665 7.12377819,5.19355463 7.17652182,5.19355463 L7.9163844,5.19355463 L6.82183296,3.27107326 C6.78650924,3.20865189 6.83054292,3.12929449 6.90409368,3.12929449 L8.13219781,3.12929449 L9.03222685,4.86064067 L9.92838479,3.12929449 L11.0940676,3.12929449 C11.1666505,3.12929449 11.2131036,3.20720023 11.1777799,3.27107326 M11.9853866,0 L6.01471015,0 C2.70782928,0 0,3.91561018 0,7.22442659 C0,10.5472757 2.33620439,12.0318397 5.65905352,12.0318397 L12.3410433,12.0318397 C15.6493758,12.0318397 18.0000968,10.533243 18.0000968,7.22442659 C18.0000968,3.91561018 15.2917836,0 11.9853866,0" id="Fill-3" fill="#FFFFFF" mask="url(#mask-4)"></path>
                    </g>
                </g>
            </g>
        </g>
    </g>
</svg>