<?xml version="1.0" encoding="UTF-8"?>
<svg width="20px" height="19px" viewBox="0 0 20 19" version="1.1" xmlns="http://www.w3.org/2000/svg" xmlns:xlink="http://www.w3.org/1999/xlink">
    <title>新增</title>
    <g id="企业端所有页面" stroke="none" stroke-width="1" fill-rule="evenodd">
        <g id="发佣管理-制单管理" transform="translate(-1728.000000, -139.000000)" fill="#FFFFFF" fill-rule="nonzero">
            <g id="编组-9" transform="translate(1708.000000, 124.000000)">
                <g id="编组" transform="translate(20.000000, 15.000000)">
                    <path d="M2.20472441,16.0737091 C1.67979004,16.0737091 1.20734907,15.6537616 1.20734907,15.0763338 L1.20734907,4.9451002 C1.20734907,4.42016583 1.62729658,3.94772487 2.20472441,3.94772487 L17.1128609,3.94772487 C17.6377953,3.94772487 18.1102362,4.36767237 18.1102362,4.9451002 L18.1102362,7.20231805 C18.5301837,7.46478524 18.9501312,7.77974588 19.3175853,8.14719993 L19.3175853,3.73775111 C19.3175853,2.26793483 18.0052493,2.42541515 18.0052493,2.42541515 L10.4461942,2.42541515 C9.97375328,2.42541515 9.76377953,2.16294796 9.76377953,2.16294796 C9.76377953,2.16294796 9.44881891,1.63801359 8.87139108,0.745625136 C8.29396325,-0.146763315 7.55905512,0.0107170066 7.55905512,0.0107169851 L1.62729658,0.0107169851 C0,0.0107169851 0,1.58552013 0,1.58552013 L0,15.7587485 C0,17.491032 1.31233596,17.2810582 1.31233594,17.2810582 L8.60892389,17.2810582 C8.3464567,16.9136041 8.13648295,16.4936566 7.92650917,16.0737091 L2.20472441,16.0737091 Z" id="路径"></path>
                    <path d="M14.3832021,7.5697721 C11.2860892,7.5697721 8.76640419,10.0894571 8.76640419,13.18657 C8.76640419,16.2836829 11.2860892,18.8033679 14.3832021,18.8033679 C17.480315,18.8033679 20,16.2836829 20,13.18657 C20,10.0894572 17.480315,7.5697721 14.3832021,7.5697721 L14.3832021,7.5697721 Z M17.2703412,13.9739716 L15.1706037,13.9739716 L15.1706037,16.0737091 C15.1706037,16.4936566 14.8031496,16.8611107 14.3832021,16.8611107 C13.9632546,16.8611107 13.5958005,16.4936566 13.5958005,16.0737091 L13.5958005,13.9739716 L11.496063,13.9739716 C11.0761155,13.9739716 10.7086614,13.6065175 10.7086614,13.18657 C10.7086614,12.7666225 11.0761155,12.3991684 11.496063,12.3991684 L13.5958005,12.3991684 L13.5958005,10.2994309 C13.5958005,9.8794834 13.9632546,9.51202933 14.3832021,9.51202933 C14.8031496,9.51202933 15.1706037,9.8794834 15.1706037,10.2994309 L15.1706037,12.3991684 L17.2703412,12.3991684 C17.6902887,12.3991684 18.0577428,12.7666225 18.0577428,13.18657 C18.0577428,13.6065175 17.6902887,13.9739716 17.2703412,13.9739716 Z" id="形状"></path>
                </g>
            </g>
        </g>
    </g>
</svg>