<svg width="20" height="20" viewBox="0 0 20 20" xmlns="http://www.w3.org/2000/svg">
<g id="Frame">
<path id="Vector" d="M8.25 4C8.65217 4 9.05041 4.08047 9.42197 4.23682C9.79353 4.39317 10.1311 4.62233 10.4155 4.91122C10.6999 5.20012 10.9255 5.54308 11.0794 5.92054C11.2333 6.298 11.3125 6.70255 11.3125 7.11111V8C11.3125 8.82512 10.9898 9.61644 10.4155 10.1999C9.84118 10.7833 9.06223 11.1111 8.25 11.1111C7.43777 11.1111 6.65882 10.7833 6.08449 10.1999C5.51016 9.61644 5.1875 8.82512 5.1875 8V7.11111C5.1875 6.70255 5.26671 6.298 5.42062 5.92054C5.57452 5.54308 5.80011 5.20012 6.08449 4.91122C6.36887 4.62233 6.70647 4.39317 7.07803 4.23682C7.44959 4.08047 7.84783 4 8.25 4ZM5.84287 11.1658C6.5317 11.7079 7.37866 12.0014 8.25 12C9.1565 12 9.99169 11.6889 10.6571 11.1658C11.8408 11.6815 12.8352 12.5617 13.5 13.6822V14.2222C13.5 14.4557 13.4547 14.6869 13.3668 14.9025C13.2788 15.1182 13.1499 15.3142 12.9874 15.4793C12.8249 15.6444 12.632 15.7753 12.4197 15.8647C12.2074 15.954 11.9798 16 11.75 16H4.75C4.28587 16 3.84075 15.8127 3.51256 15.4793C3.18437 15.1459 3 14.6937 3 14.2222V13.6822C3.66483 12.5617 4.65922 11.6815 5.84287 11.1658ZM13.0625 5.33333H16.5625C16.62 5.33333 16.6768 5.34483 16.7299 5.36716C16.783 5.3895 16.8312 5.42224 16.8719 5.46351C16.9125 5.50478 16.9447 5.55377 16.9667 5.6077C16.9887 5.66162 17 5.71941 17 5.77778V6.66667C17 6.72503 16.9887 6.78283 16.9667 6.83675C16.9447 6.89067 16.9125 6.93967 16.8719 6.98094C16.8312 7.02221 16.783 7.05494 16.7299 7.07728C16.6768 7.09962 16.62 7.11111 16.5625 7.11111H13.0625C13.005 7.11111 12.9482 7.09962 12.8951 7.07728C12.842 7.05494 12.7938 7.02221 12.7531 6.98094C12.7125 6.93967 12.6803 6.89067 12.6583 6.83675C12.6363 6.78283 12.625 6.72503 12.625 6.66667V5.77778C12.625 5.71941 12.6363 5.66162 12.6583 5.6077C12.6803 5.55377 12.7125 5.50478 12.7531 5.46351C12.7938 5.42224 12.842 5.3895 12.8951 5.36716C12.9482 5.34483 13.005 5.33333 13.0625 5.33333ZM13.9375 8.88889H16.5625C16.62 8.88889 16.6768 8.90038 16.7299 8.92272C16.783 8.94506 16.8312 8.97779 16.8719 9.01906C16.9125 9.06033 16.9447 9.10933 16.9667 9.16325C16.9887 9.21717 17 9.27497 17 9.33333V10.2222C17 10.2806 16.9887 10.3384 16.9667 10.3923C16.9447 10.4462 16.9125 10.4952 16.8719 10.5365C16.8312 10.5778 16.783 10.6105 16.7299 10.6328C16.6768 10.6552 16.62 10.6667 16.5625 10.6667H13.9375C13.8215 10.6667 13.7102 10.6198 13.6281 10.5365C13.5461 10.4531 13.5 10.3401 13.5 10.2222V9.33333C13.5 9.21546 13.5461 9.10241 13.6281 9.01906C13.7102 8.93571 13.8215 8.88889 13.9375 8.88889ZM15.25 12.4444H16.5625C16.62 12.4444 16.6768 12.4559 16.7299 12.4783C16.783 12.5006 16.8312 12.5333 16.8719 12.5746C16.9125 12.6159 16.9447 12.6649 16.9667 12.7188C16.9887 12.7727 17 12.8305 17 12.8889V13.7778C17 13.8361 16.9887 13.8939 16.9667 13.9479C16.9447 14.0018 16.9125 14.0508 16.8719 14.092C16.8312 14.1333 16.783 14.1661 16.7299 14.1884C16.6768 14.2107 16.62 14.2222 16.5625 14.2222H15.25C15.134 14.2222 15.0227 14.1754 14.9406 14.092C14.8586 14.0087 14.8125 13.8957 14.8125 13.7778V12.8889C14.8125 12.771 14.8586 12.658 14.9406 12.5746C15.0227 12.4913 15.134 12.4444 15.25 12.4444Z"/>
</g>
</svg>
