<svg width="20" height="20" viewBox="0 0 20 20"  xmlns="http://www.w3.org/2000/svg">
<g id="Frame">
<path id="Vector" d="M10 3C10.9193 3 11.8295 3.18106 12.6788 3.53284C13.5281 3.88463 14.2997 4.40024 14.9497 5.05025C15.5998 5.70026 16.1154 6.47194 16.4672 7.32122C16.8189 8.17049 17 9.08075 17 10C17 10.9193 16.8189 11.8295 16.4672 12.6788C16.1154 13.5281 15.5998 14.2997 14.9497 14.9497C14.2997 15.5998 13.5281 16.1154 12.6788 16.4672C11.8295 16.8189 10.9193 17 10 17C8.14348 17 6.36301 16.2625 5.05025 14.9497C3.7375 13.637 3 11.8565 3 10C3 8.14348 3.7375 6.36301 5.05025 5.05025C6.36301 3.7375 8.14348 3 10 3ZM13.5418 6.64639C13.5211 6.60094 13.4916 6.56003 13.4551 6.52597C13.4186 6.49192 13.3757 6.46539 13.3289 6.44792C13.2821 6.43044 13.2324 6.42235 13.1824 6.42411C13.1325 6.42587 13.0835 6.43744 13.038 6.45817L8.90494 8.33935C8.65433 8.45344 8.45344 8.65433 8.33935 8.90494L6.45817 13.038C6.42598 13.1085 6.41611 13.1872 6.42987 13.2635C6.44364 13.3397 6.48039 13.41 6.5352 13.4648C6.59 13.5196 6.66025 13.5564 6.73653 13.5701C6.81281 13.5839 6.89147 13.574 6.96198 13.5418L11.0951 11.6606C11.3457 11.5466 11.5466 11.3457 11.6606 11.0951L13.5418 6.96198C13.5644 6.91244 13.5761 6.85863 13.5761 6.80418C13.5761 6.74974 13.5644 6.69592 13.5418 6.64639ZM10 8.94962C10.2786 8.94962 10.5457 9.06028 10.7427 9.25727C10.9397 9.45425 11.0504 9.72142 11.0504 10C11.0504 10.2786 10.9397 10.5457 10.7427 10.7427C10.5457 10.9397 10.2786 11.0504 10 11.0504C9.72142 11.0504 9.45425 10.9397 9.25727 10.7427C9.06028 10.5457 8.94962 10.2786 8.94962 10C8.94962 9.72142 9.06028 9.45425 9.25727 9.25727C9.45425 9.06028 9.72142 8.94962 10 8.94962Z" />
</g>
</svg>
