<?xml version="1.0" encoding="UTF-8"?>
<svg width="20px" height="20px" viewBox="0 0 20 20" version="1.1" xmlns="http://www.w3.org/2000/svg" xmlns:xlink="http://www.w3.org/1999/xlink">
    <title>编组</title>
    <g id="企业后台（中控/代理）" stroke="none" stroke-width="1" fill-rule="evenodd">
        <g id="企业后台-客户管理-账号管理" transform="translate(-1550.000000, -138.000000)" fill="#FFFFFF" fill-rule="nonzero">
            <g id="编组-9备份-39" transform="translate(1530.000000, 124.000000)">
                <g id="编组" transform="translate(20.000000, 14.000000)">
                    <path d="M9.21,4.74666666 C8.40666666,5.22666666 7.42,6.52666666 7.01333334,8.08 C6.76779038,9.04685492 6.65563996,10.0427506 6.68,11.04 C6.68,11.04 7.21,10.18 7.42666666,9.87666666 C8.09206707,8.99150217 8.95953296,8.27832864 9.95666666,7.79666666 C11.3633333,7.13 13.7166667,7.26 13.7166667,7.26 L13.7166667,9.46666666 C13.7178097,9.56407808 13.7726381,9.65290009 13.8592059,9.69758023 C13.9457737,9.74226036 14.0499359,9.73549804 14.13,9.68 L19.89,5.58333334 C19.9584312,5.53381248 19.9989529,5.45446982 19.9989529,5.37 C19.9989529,5.28553018 19.9584312,5.20618752 19.89,5.15666666 L14.12,1.05 C14.0399359,0.994501957 13.9357737,0.987739638 13.8492059,1.03241977 C13.7626381,1.07709991 13.7078097,1.16592192 13.7066667,1.26333334 L13.7066667,3.49333334 C13.7066667,3.49333334 12.15,3.61 11.3366667,3.78 C10.5610836,3.9236699 9.83224507,4.25433608 9.21333334,4.74333334 L9.21,4.74666666 Z" id="路径"></path>
                    <path d="M19.3066667,8.33333334 C18.9237492,8.33333335 18.6133334,8.64374925 18.6133333,9.02666666 L18.6133333,14.2366667 C18.6133363,14.8115845 18.1482483,15.2781632 17.5733333,15.28 L5.76333334,15.28 C5.18971681,15.2781703 4.72516308,14.8136165 4.72333334,14.24 L4.72333334,2.43 C4.72517014,1.85508509 5.19174882,1.38999708 5.76666666,1.39 L9.30666666,1.39 C9.69050456,1.39 10.0016667,1.0788379 10.0016667,0.695 C10.0016667,0.311162099 9.69050456,0 9.30666666,0 L5.76333334,0 C4.4212814,0 3.33333334,1.08794806 3.33333334,2.43 L3.33333334,3.33333334 L2.43,3.33333334 C1.08870935,3.33516947 0.001836133,4.42204269 0,5.76333334 L0,17.57 C0.001836133,18.9112907 1.08870935,19.9981639 2.43,20 L14.2366667,20 C15.5779573,19.9981639 16.6648305,18.9112907 16.6666667,17.57 L16.6666667,16.6666667 L17.57,16.6666667 C18.9120519,16.6666667 20,15.5787186 20,14.2366667 L20,9.02666666 C20,8.64374924 19.6895841,8.33333334 19.3066667,8.33333334 Z M15.2766667,17.57 C15.2766667,18.1449178 14.8115816,18.6114965 14.2366667,18.6133333 L2.43,18.6133333 C1.85638347,18.6115036 1.39182974,18.1469499 1.39,17.5733333 L1.39,5.76333334 C1.3918368,5.18841843 1.85841549,4.72333334 2.43333334,4.72333334 L3.33333334,4.72333334 L3.33333334,14.2366667 C3.33333334,15.5787186 4.4212814,16.6666667 5.76333334,16.6666667 L15.2766667,16.6666667 L15.2766667,17.57 Z" id="形状"></path>
                </g>
            </g>
        </g>
    </g>
</svg>