<?xml version="1.0" encoding="UTF-8"?>
<svg width="18px" height="18px" viewBox="0 0 18 18" version="1.1" xmlns="http://www.w3.org/2000/svg" xmlns:xlink="http://www.w3.org/1999/xlink">
    <title>编组</title>
    <g id="企业后台（中控/代理）" stroke="none" stroke-width="1" fill-rule="evenodd">
        <g id="企业后台-财务管理-财务对账详情" transform="translate(-40.000000, -109.000000)" fill="#FFFFFF" fill-rule="nonzero">
            <g id="编组" transform="translate(40.000000, 109.000000)">
                <path d="M9.96678947,0.310045754 L16.9138421,5.27984221 C17.5955771,5.76753233 18,6.55266123 18,7.38904904 L18,15.4033268 C18,16.8373986 16.8335526,18 15.3947368,18 L11.8421053,18 L11.8421053,14.2230208 C11.8421053,12.6586432 10.5695526,11.3902864 9,11.3902864 C7.43044737,11.3902864 6.15789473,12.6586432 6.15789473,14.2230208 L6.15789473,18 L2.60526315,18 C1.16644736,18 0,16.8373986 0,15.4033268 L0,7.38928509 C0,6.552814 0.404354984,5.76758089 1.08615789,5.27984221 L8.03321053,0.310045754 C8.61101055,-0.103348585 9.38898945,-0.103348585 9.96678947,0.310045754 Z" id="路径"></path>
            </g>
        </g>
    </g>
</svg>