<svg width="20" height="20" viewBox="0 0 20 20" xmlns="http://www.w3.org/2000/svg">
<g id="Frame">
<path id="Vector" d="M9.65968 5.57157C9.65968 5.54135 9.66498 5.51112 9.67382 5.48258L4.38073 4.04365C4.25167 4.01343 4.1509 4.00168 4.05367 4.00168C3.54628 4.00168 3 4.3526 3 5.12663L3.01061 11.0939C3.01061 11.1056 3.01238 11.1157 3.01414 11.1275V13.3572C3.01414 13.6494 3.13436 14.1799 3.94583 14.4301L9.65968 16V5.57157ZM4.66183 7.67539C4.72901 7.43865 4.98535 7.29593 5.23463 7.35973L8.38679 8.15559C8.63606 8.21939 8.78634 8.46285 8.71916 8.69959C8.66258 8.8994 8.47342 9.03036 8.26657 9.03036C8.22768 9.03036 8.18702 9.02533 8.14636 9.01525L4.99419 8.21939C4.74492 8.15727 4.59641 7.91213 4.66183 7.67539ZM8.72092 11.9435C8.66435 12.1433 8.47519 12.2742 8.26834 12.2742C8.22945 12.2742 8.18879 12.2692 8.14812 12.2591L4.99596 11.4633C4.74668 11.3995 4.59641 11.156 4.66359 10.9193C4.73077 10.6825 4.98712 10.5415 5.23639 10.6036L8.38856 11.3995C8.6396 11.4633 8.7881 11.7067 8.72092 11.9435ZM15.9481 4C15.8509 4 15.7501 4.01175 15.621 4.04198L10.3279 5.4809C10.3368 5.50944 10.3421 5.53799 10.3421 5.56989V16L16.0542 14.4301C16.8656 14.1799 16.9859 13.6494 16.9859 13.3572L17 5.12663C17 4.3526 16.4537 4 15.9481 4ZM15.1808 11.4633L12.0269 12.2591C11.9862 12.2692 11.9456 12.2742 11.9067 12.2742C11.6998 12.2742 11.5089 12.1416 11.4541 11.9435C11.3869 11.7067 11.5372 11.4616 11.7865 11.3995L14.9386 10.6036C15.1879 10.5415 15.446 10.6825 15.5114 10.9193C15.5786 11.156 15.4301 11.4011 15.1808 11.4633ZM15.1808 8.21939L12.0269 9.01525C11.9862 9.02533 11.9456 9.03036 11.9067 9.03036C11.6998 9.03036 11.5089 8.89772 11.4541 8.69959C11.3869 8.46285 11.5372 8.21771 11.7865 8.15559L14.9386 7.35973C15.1879 7.29761 15.446 7.43865 15.5114 7.67539C15.5786 7.91213 15.4301 8.15727 15.1808 8.21939Z" />
</g>
</svg>
