<?xml version="1.0" encoding="UTF-8"?>
<svg width="20px" height="20px" viewBox="0 0 20 20" version="1.1" xmlns="http://www.w3.org/2000/svg" xmlns:xlink="http://www.w3.org/1999/xlink">
    <title>编组</title>
    <g id="企业后台（中控/代理）" stroke="none" stroke-width="1" fill-rule="evenodd">
        <g id="企业后台-客户管理-账号管理" transform="translate(-1390.000000, -138.000000)" fill="#FFFFFF" fill-rule="nonzero">
            <g id="编组-9备份-37" transform="translate(1370.000000, 124.000000)">
                <g id="编组" transform="translate(20.000000, 14.000000)">
                    <path d="M19.2964881,7.82670794 C18.8761146,7.60366072 18.3681176,7.6247045 17.9676322,7.88175582 L17.7232196,8.01387074 L17.7232196,1.32114918 C17.7232196,0.592315216 17.1309044,0 16.4020704,0 L3.27204945,0 C2.54321549,0 1.95090027,0.592315216 1.95090027,1.32114918 L1.95090027,7.83661656 C1.56446414,7.62633365 1.09765809,7.61862694 0.703515253,7.82670794 C0.270169573,8.05510175 -0.000772265899,8.50497545 1.65356375e-06,8.99482401 L1.65356375e-06,18.3144305 C1.65356375e-06,19.0432645 0.59231853,19.6355797 1.3211525,19.6355797 L18.6788508,19.6355797 C19.4076848,19.6355797 20.0000017,19.0432645 20.0000017,18.3144305 L20.0000017,8.99482401 C20.0000017,8.5037969 19.7302654,8.05570713 19.2964881,7.82670794 Z M16.4020704,1.32114918 L16.4020704,8.73059417 L10.0572515,12.1754907 L10.0000017,12.2096203 L9.97247772,12.1909041 L3.27204945,8.55444095 L3.27204945,1.32114918 L16.4020704,1.32114918 Z M1.3211525,18.3133296 L1.3211525,8.99372305 L1.34867644,9.01243933 L9.28768206,13.3237895 C9.72366129,13.6034327 10.2752411,13.6034327 10.7112203,13.3237895 L18.621601,9.02895369 L18.6788508,8.99372305 L18.6799518,18.3133296 L1.3211525,18.3133296 L1.3211525,18.3133296 Z" id="形状"></path>
                    <path d="M9.1357499,3.20929155 L14.4908079,3.20929155 L14.4908079,4.53044073 L9.1357499,4.53044073 L9.1357499,3.20929155 Z M5.42552262,6.20279541 L14.4908079,6.20279541 L14.4908079,7.52394459 L5.42552262,7.52394459 L5.42552262,6.20279541 Z" id="形状"></path>
                </g>
            </g>
        </g>
    </g>
</svg>