<svg width="20" height="20" viewBox="0 0 20 20"  xmlns="http://www.w3.org/2000/svg">
<g id="Frame">
<path id="Vector" d="M12.3978 3L14.6022 4.33004L14.0944 5.81303C14.4295 6.17179 14.7202 6.57304 14.9598 7.00741C15.2055 7.45164 15.39 7.91516 15.5173 8.38733L17 8.66996V11.33L15.5154 11.6127C15.2566 12.5821 14.7678 13.4675 14.0944 14.187L14.6022 15.67L12.3978 17L11.4223 15.799C10.4893 16.0487 9.51112 16.0482 8.57836 15.7976L7.60218 17L5.39782 15.67L5.90564 14.187C5.57051 13.8282 5.27975 13.427 5.04018 12.9926C4.79986 12.5586 4.61258 12.0948 4.48273 11.612L3 11.33V8.66996L4.48464 8.38733C4.74341 7.41792 5.23218 6.53246 5.90564 5.81303L5.39782 4.33004L7.60218 3L8.57773 4.20103C9.51069 3.95131 10.4889 3.95176 11.4216 4.20236L12.3978 3ZM8.40909 7.12046C8.04431 7.3372 7.72416 7.6272 7.46706 7.97377C7.20996 8.32034 7.021 8.71663 6.91106 9.13982C6.80112 9.56302 6.77236 10.0048 6.82645 10.4396C6.88053 10.8745 7.01639 11.2939 7.22621 11.6736C7.43602 12.0534 7.71564 12.386 8.04898 12.6524C8.38231 12.9188 8.76277 13.1136 9.16844 13.2257C9.57412 13.3378 9.99701 13.3649 10.4128 13.3055C10.8285 13.2461 11.2289 13.1013 11.5909 12.8795C12.3157 12.4355 12.8431 11.7098 13.0578 10.8609C13.2726 10.012 13.1574 9.10885 12.7372 8.34844C12.3171 7.58803 11.6262 7.03215 10.8154 6.80209C10.0045 6.57203 9.1395 6.68648 8.40909 7.12046ZM10 8.00494C10.5063 8.00494 10.9919 8.21513 11.3499 8.58928C11.708 8.96343 11.9091 9.47088 11.9091 10C11.9091 10.5291 11.708 11.0366 11.3499 11.4107C10.9919 11.7849 10.5063 11.9951 10 11.9951C9.49368 11.9951 9.00809 11.7849 8.65007 11.4107C8.29205 11.0366 8.09091 10.5291 8.09091 10C8.09091 9.47088 8.29205 8.96343 8.65007 8.58928C9.00809 8.21513 9.49368 8.00494 10 8.00494Z" />
</g>
</svg>
