<svg width="20" height="20" viewBox="0 0 20 20" xmlns="http://www.w3.org/2000/svg">
<g id="Frame">
<path id="Vector" d="M15.6674 15.4941H5.43972C4.80619 15.4941 4.65261 15.803 4.65261 16.2718C4.65261 16.7407 5.02537 16.9263 5.43972 16.9263H16.8544C16.8544 17.3311 16.5025 18 15.9137 18H4.89898C3.94069 18 3 16.8575 3 16.147V3.94579C3.0016 3.0481 3.94069 2 4.89898 2H15.0402C15.9329 2 17 3.0177 17 3.94579V14.3084C17 14.9853 16.2369 15.4941 15.6674 15.4941ZM5.75009 10.5H10.2504C10.6663 10.5 11.0007 10.164 11.0007 9.75118C11.0007 9.33513 10.6647 9.0007 10.2504 9.0007H5.75009C5.33413 9.0007 4.99977 9.33673 4.99977 9.75118C4.99977 10.164 5.33573 10.5 5.75009 10.5ZM14.2531 4.9987H5.75009C5.33413 4.9987 4.99977 5.33473 4.99977 5.74917C4.99977 6.16362 5.33573 6.49805 5.75009 6.49805H14.2515C14.6659 6.49805 15.0002 6.16202 15.0002 5.74917C15.0018 5.33473 14.6659 4.9987 14.2531 4.9987Z" />
</g>
</svg>
