<svg width="20" height="20" viewBox="0 0 20 20" xmlns="http://www.w3.org/2000/svg">
<g id="Frame">
<path id="Vector" d="M3.2118 6.46456C3.2118 4.59729 4.75634 3.08365 6.6618 3.08365C8.56816 3.08365 10.1127 4.59729 10.1127 6.46456C10.1127 8.33183 8.56725 9.84547 6.6618 9.84547C4.75634 9.84547 3.2118 8.33183 3.2118 6.46456ZM7.95453 15.7882V15.5546C7.95453 13.8309 8.85271 12.3164 10.2073 11.4236C9.59535 11.1274 8.92439 10.9732 8.24452 10.9727H5.36816C2.90634 10.9727 0.910889 12.9273 0.910889 15.3391V15.6209C0.910889 16.6073 2.90634 16.6073 5.36816 16.6073H8.11816C8.00626 16.3489 7.95048 16.0697 7.95453 15.7882ZM14.08 5.38092C12.4991 5.38092 11.2163 6.63728 11.2163 8.18728C11.2163 9.73728 12.4991 10.9936 14.08 10.9936C15.6618 10.9936 16.9436 9.73728 16.9436 8.18728C16.9436 6.63728 15.6627 5.38092 14.08 5.38092ZM14.08 5.38092C12.4991 5.38092 11.2163 6.63728 11.2163 8.18728C11.2163 9.73728 12.4991 10.9936 14.08 10.9936C15.6618 10.9936 16.9436 9.73728 16.9436 8.18728C16.9436 6.63728 15.6627 5.38092 14.08 5.38092ZM13.0073 11.93C10.9636 11.93 9.30725 13.5527 9.30725 15.5546V15.7882C9.30725 16.6064 10.9636 16.6064 13.0073 16.6064H15.3945C17.4373 16.6064 19.0927 16.5764 19.0927 15.7882V15.5546C19.0927 13.5527 17.4373 11.93 15.3945 11.93H13.0073Z" />
</g>
</svg>
