<svg width="20" height="20" viewBox="0 0 20 20" xmlns="http://www.w3.org/2000/svg">
<g id="Frame">
<path id="Vector" d="M10.9555 13.9262L14.0054 8.57593V4.54943C14.0054 3.69365 13.302 3 12.4349 3H4.58738C3.71019 3 3 3.69532 3 4.55611V15.4439C3 16.303 3.71188 17 4.58738 17H10.7986L10.7109 16.5036C10.6603 16.2746 10.4848 15.6445 10.5422 15.0561C10.5894 14.563 10.8576 14.1034 10.9555 13.9262ZM5.73448 6.49833H11.3806C11.5763 6.49833 11.7331 6.67216 11.7331 6.88777C11.7331 7.10339 11.5746 7.27722 11.3806 7.27722H5.73448C5.5388 7.27722 5.38192 7.10339 5.38192 6.88777C5.38023 6.67216 5.5388 6.49833 5.73448 6.49833ZM9.79319 13.4967H5.73448C5.5388 13.4967 5.38192 13.3228 5.38192 13.1072C5.38192 12.8916 5.54049 12.7178 5.73448 12.7178H9.79319C9.98887 12.7178 10.1458 12.8916 10.1458 13.1072C10.1458 13.3228 9.98719 13.4967 9.79319 13.4967ZM5.73448 10.3861C5.5388 10.3861 5.38192 10.2123 5.38192 9.99666C5.38192 9.78104 5.54049 9.60721 5.73448 9.60721H11.3806C11.5763 9.60721 11.7331 9.78104 11.7331 9.99666C11.7331 10.2123 11.5746 10.3861 11.3806 10.3861H5.73448ZM16.556 10.1053L15.4595 9.48185C15.2554 9.35649 15.0007 9.33142 14.7713 9.40664C14.5418 9.45678 14.3377 9.60721 14.2348 9.80611L11.4835 14.4494C11.3047 14.7736 11.2034 15.2734 11.2794 15.6227L11.4059 16.3465C11.4565 16.5955 11.5847 16.7961 11.7888 16.8964C11.917 16.9716 12.0435 16.9967 12.197 16.9967C12.2999 16.9967 12.4012 16.9716 12.4771 16.9465L13.1906 16.6975C13.5483 16.5721 13.9312 16.2479 14.1336 15.9236L16.8867 11.2553C17.1178 10.8809 16.9896 10.3309 16.556 10.1053Z" />
</g>
</svg>
