<svg width="20" height="20" viewBox="0 0 20 20" xmlns="http://www.w3.org/2000/svg">
<g id="Frame">
<path id="Vector" d="M16.4167 3H3.58333C3.2625 3 3 3.27347 3 3.6077V7.86164C3 8.19588 3.2625 8.46934 3.58333 8.46934H4.75V16.3695C4.75 16.5518 4.8375 16.7341 4.98333 16.8557C5.1 16.9468 5.21667 16.9772 5.33333 16.9772C5.39167 16.9772 5.45 16.9772 5.50833 16.9468L7.55 16.3087L9.85417 16.9772C9.94167 17.0076 10.0583 17.0076 10.175 16.9772L12.4792 16.3087L14.4917 16.9468C14.6667 17.0076 14.8708 16.9772 15.0167 16.8557C15.1625 16.7341 15.25 16.5518 15.25 16.3695V8.46934H16.4167C16.7375 8.46934 17 8.19588 17 7.86164V3.6077C17 3.27347 16.7375 3 16.4167 3ZM12.3333 12.7233H7.66667V11.5079H12.3333V12.7233ZM12.3333 10.9002H7.66667V9.68475H12.3333V10.9002ZM15.8333 7.25393H15.25V6.03852C15.25 5.70429 14.9875 5.43082 14.6667 5.43082H5.33333C5.0125 5.43082 4.75 5.70429 4.75 6.03852V7.25393H4.16667V4.21541H15.8333V7.25393Z" />
</g>
</svg>
