<svg width="20" height="20" viewBox="0 0 20 20" xmlns="http://www.w3.org/2000/svg">
<g id="Frame">
<path id="Vector" d="M14.9392 4.05657H12.9676C12.7785 3.44454 12.2083 3 11.535 3H8.49473C7.82138 3 7.25114 3.44454 7.0621 4.05657H5.06236C4.47494 4.05657 4 4.53242 4 5.12098V15.9356C4 16.5242 4.47494 17 5.06236 17H14.9376C15.5251 17 16 16.5242 16 15.9356V5.12098C16.0016 4.53399 15.5251 4.05657 14.9392 4.05657ZM10.0148 13.3372C10.0148 13.6127 9.79143 13.8365 9.51647 13.8365H7.03242C6.75745 13.8365 6.53404 13.6127 6.53404 13.3372C6.53404 13.0617 6.75745 12.8379 7.03242 12.8379H9.51647C9.79143 12.8379 10.0148 13.0617 10.0148 13.3372ZM13.5206 10.5526C13.5206 10.828 13.2972 11.0519 13.0223 11.0519H7.00742C6.73246 11.0519 6.50905 10.828 6.50905 10.5526C6.50905 10.2771 6.73246 10.0532 7.00742 10.0532H13.0238C13.2988 10.0532 13.5206 10.2771 13.5206 10.5526ZM13.5206 7.76789C13.5206 8.04338 13.2972 8.26722 13.0223 8.26722H7.00742C6.73246 8.26722 6.50905 8.04338 6.50905 7.76789C6.50905 7.4924 6.73246 7.26856 7.00742 7.26856H13.0238C13.2988 7.26856 13.5206 7.4924 13.5206 7.76789Z" />
</g>
</svg>
