<svg width="20" height="20" viewBox="0 0 20 20" xmlns="http://www.w3.org/2000/svg">
<g id="Frame">
<path id="Vector" d="M15.6506 3H4.3494C3.60386 3 3 3.60583 3 4.3538V15.6462C3 16.3942 3.60386 17 4.3494 17H15.6506C16.3961 17 17 16.3942 17 15.6462V4.3538C17 3.60583 16.3961 3 15.6506 3ZM8.98795 6.41158C8.98795 6.13067 9.21398 5.9039 9.49398 5.9039H10.506C10.786 5.9039 11.012 6.13067 11.012 6.41158V7.42693C11.012 7.70784 10.786 7.93461 10.506 7.93461H9.49398C9.21398 7.93461 8.98795 7.70784 8.98795 7.42693V6.41158ZM5.1253 6.41158C5.1253 6.13067 5.35133 5.9039 5.63133 5.9039H6.64337C6.92337 5.9039 7.1494 6.13067 7.1494 6.41158V7.42693C7.1494 7.70784 6.92337 7.93461 6.64337 7.93461H5.63133C5.35133 7.93461 5.1253 7.70784 5.1253 7.42693V6.41158ZM11.012 13.8846C11.012 14.2586 10.7101 14.5615 10.3373 14.5615H5.8C5.42723 14.5615 5.1253 14.2586 5.1253 13.8846C5.1253 13.5106 5.42723 13.2077 5.8 13.2077H10.3373C10.7101 13.2077 11.012 13.5106 11.012 13.8846ZM14.8747 10.8097C14.8747 11.1837 14.5728 11.4866 14.2 11.4866H5.8C5.42723 11.4866 5.1253 11.1837 5.1253 10.8097C5.1253 10.4358 5.42723 10.1328 5.8 10.1328H14.2C14.5728 10.1328 14.8747 10.4358 14.8747 10.8097ZM14.8747 7.42693C14.8747 7.70784 14.6487 7.93461 14.3687 7.93461H13.3566C13.0766 7.93461 12.8506 7.70784 12.8506 7.42693V6.41158C12.8506 6.13067 13.0766 5.9039 13.3566 5.9039H14.3687C14.6487 5.9039 14.8747 6.13067 14.8747 6.41158V7.42693Z" />
</g>
</svg>
