<svg width="20" height="20" viewBox="0 0 20 20" xmlns="http://www.w3.org/2000/svg">
<g id="Frame">
<path id="Vector" d="M16.9969 8.65027L17.7961 9.13486C17.9946 9.25601 18.059 9.51639 17.941 9.7171C17.9052 9.77677 17.8552 9.82739 17.7961 9.86356L10.4327 14.3316C10.1663 14.4925 9.83371 14.4925 9.56728 14.3316L2.20386 9.86537C2.00538 9.74422 1.94101 9.48384 2.05902 9.28313C2.09478 9.22346 2.14485 9.17283 2.20386 9.13667L3.00314 8.65027L9.56907 12.6337C9.8355 12.7946 10.1663 12.7946 10.4327 12.6337L16.9969 8.65027ZM16.9969 11.198L17.7961 11.6826C17.9946 11.8037 18.059 12.0641 17.941 12.2648C17.9052 12.3245 17.8552 12.3751 17.7961 12.4113L10.4327 16.8793C10.1663 17.0402 9.83371 17.0402 9.56728 16.8793L2.20386 12.4113C2.00538 12.2901 1.94101 12.0298 2.05902 11.8291C2.09478 11.7694 2.14485 11.7188 2.20386 11.6826L3.00314 11.1962L9.56907 15.1796C9.8355 15.3405 10.1663 15.3405 10.4327 15.1796L16.9969 11.198ZM10.4309 2.11911L17.7961 6.58894C17.9946 6.71009 18.059 6.97047 17.941 7.17118C17.9052 7.23085 17.8552 7.28147 17.7961 7.31764L10.4327 11.7838C10.1663 11.9448 9.83371 11.9448 9.56728 11.7838L2.20386 7.31764C2.00538 7.19649 1.94101 6.93611 2.05902 6.7354C2.09478 6.67573 2.14485 6.6251 2.20386 6.58894L9.56728 2.12092C9.83371 1.95999 10.1663 1.95999 10.4309 2.11911Z" />
</g>
</svg>
