<svg width="20" height="20" viewBox="0 0 20 20" xmlns="http://www.w3.org/2000/svg">
<g id="Frame">
<path id="Vector" d="M6.23292 3C7.08932 3.00062 7.91044 3.34131 8.51579 3.9472C9.12114 4.55309 9.46118 5.37458 9.46118 6.23113V9.45992H6.23292C5.39145 9.4373 4.59204 9.08708 4.00487 8.48381C3.41769 7.88054 3.08913 7.07188 3.08913 6.22996C3.08913 5.38805 3.41769 4.57938 4.00487 3.97611C4.59204 3.37284 5.39145 3.02262 6.23292 3ZM6.23292 10.5377H9.46118V13.7677C9.46095 14.4068 9.27122 15.0315 8.916 15.5627C8.56077 16.094 8.05601 16.508 7.46554 16.7523C6.87507 16.9966 6.22542 17.0603 5.59876 16.9353C4.9721 16.8103 4.39658 16.5022 3.94498 16.0501C3.49339 15.5979 3.186 15.0219 3.06171 14.395C2.93741 13.7681 3.00179 13.1185 3.2467 12.5282C3.4916 11.9378 3.90604 11.4334 4.43759 11.0787C4.96914 10.724 5.59392 10.5349 6.23292 10.5354V10.5377ZM13.7671 3C14.6085 3.02262 15.408 3.37284 15.9951 3.97611C16.5823 4.57938 16.9109 5.38805 16.9109 6.22996C16.9109 7.07188 16.5823 7.88054 15.9951 8.48381C15.408 9.08708 14.6085 9.4373 13.7671 9.45992H10.54V6.23113C10.54 5.37479 10.8799 4.55347 11.485 3.94761C12.0901 3.34176 12.9109 3.00093 13.7671 3ZM10.54 10.5377H13.7694C14.4084 10.5377 15.0331 10.7273 15.5643 11.0824C16.0956 11.4375 16.5097 11.9422 16.7542 12.5326C16.9987 13.1231 17.0626 13.7729 16.9378 14.3997C16.8131 15.0265 16.5053 15.6022 16.0534 16.054C15.6014 16.5059 15.0257 16.8135 14.3989 16.9381C13.7722 17.0626 13.1226 16.9984 12.5323 16.7537C11.942 16.509 11.4375 16.0946 11.0827 15.5631C10.7279 15.0316 10.5386 14.4068 10.5388 13.7677V10.5354L10.54 10.5377Z" />
</g>
</svg>
