<svg width="20" height="20" viewBox="0 0 20 20" xmlns="http://www.w3.org/2000/svg">
<g id="Frame">
<path id="Vector" d="M14.3267 4.00005C14.5906 4.24878 14.8009 4.45522 14.9573 4.61942C15.1138 4.78362 15.2336 4.92287 15.3167 5.0373C15.3998 5.15172 15.4511 5.2488 15.4706 5.32839C15.4902 5.40796 15.5 5.47764 15.5 5.53732V5.77614H13.3294C13.2315 5.77614 13.146 5.73884 13.0727 5.6642C12.9994 5.58956 12.9382 5.50248 12.8894 5.40301C12.8404 5.30347 12.8038 5.2015 12.7794 5.09698C12.7549 4.99257 12.7427 4.91042 12.7427 4.85074V3H12.7867C12.8649 3 12.9456 3.01247 13.0286 3.03732C13.1118 3.06215 13.2071 3.10946 13.3147 3.17915C13.4222 3.24873 13.5567 3.3483 13.718 3.47766C13.8794 3.607 14.0822 3.78111 14.3267 4.00003V4.00005ZM11.8187 4.86567C11.8187 5.06469 11.848 5.27115 11.9067 5.48505C11.9653 5.69909 12.0582 5.89805 12.1853 6.08206C12.3125 6.26614 12.4738 6.41788 12.6694 6.53735C12.8649 6.6567 13.0947 6.71639 13.3587 6.71639H15.5V15.1343C15.5 15.4229 15.4438 15.6816 15.3314 15.9105C15.2189 16.1393 15.0698 16.3334 14.884 16.4925C14.6982 16.6518 14.4929 16.7761 14.268 16.8657C14.0431 16.9553 13.8232 17 13.608 17H6.392C6.20622 17 6.00334 16.9453 5.78333 16.8359C5.56333 16.7264 5.35802 16.5821 5.1673 16.403C4.97666 16.2239 4.81775 16.0199 4.69062 15.7911C4.56353 15.5622 4.5 15.3234 4.5 15.0746V4.92536C4.5 4.71643 4.54647 4.49997 4.63937 4.27609C4.73225 4.05221 4.85938 3.84576 5.02063 3.6567C5.18198 3.46765 5.36532 3.31098 5.57062 3.18656C5.77604 3.06217 5.99109 3 6.21605 3H11.8187V4.86567ZM12.7427 14.1791C12.9969 14.1791 13.212 14.0871 13.388 13.903C13.564 13.719 13.652 13.4976 13.652 13.2388C13.652 12.9801 13.564 12.7612 13.388 12.5821C13.212 12.403 12.9969 12.3134 12.7427 12.3134H7.24268C6.98845 12.3134 6.77332 12.403 6.5973 12.5821C6.42133 12.7612 6.33331 12.9801 6.33331 13.2388C6.33331 13.4975 6.42133 13.7189 6.5973 13.903C6.77332 14.0871 6.98845 14.1791 7.24268 14.1791H12.7427ZM13.652 9.52242C13.652 9.2637 13.564 9.0423 13.388 8.8582C13.212 8.67412 12.9969 8.58208 12.7427 8.58208H7.24269C6.98847 8.58208 6.77334 8.67412 6.59732 8.8582C6.42135 9.04228 6.33333 9.2637 6.33333 9.52242C6.33333 9.78106 6.42135 9.99998 6.59732 10.1791C6.77334 10.3582 6.98847 10.4477 7.24269 10.4477H12.7427C12.9969 10.4477 13.212 10.3582 13.388 10.1791C13.564 9.99998 13.652 9.78106 13.652 9.52242H13.652Z" />
</g>
</svg>
