<svg width="20" height="20" viewBox="0 0 20 20" xmlns="http://www.w3.org/2000/svg">
<g id="Frame">
<path id="Vector" d="M16.2779 5.24584L10.7806 2.18543C10.5611 2.06394 10.3124 2 10.0592 2C9.80597 2 9.5572 2.06394 9.33772 2.18543L3.60244 5.24584C3.15599 5.49559 3 5.95368 3 6.4493V12.5572C3 13.0528 3.15599 13.5109 3.60244 13.7593L9.33772 16.8146C9.5572 16.9361 9.80597 17 10.0592 17C10.3124 17 10.5611 16.9361 10.7806 16.8146L16.2779 13.7568C16.497 13.6347 16.6791 13.4594 16.8058 13.2485C16.9325 13.0375 16.9995 12.7983 17 12.5546V6.44671C16.9993 6.2029 16.9323 5.96352 16.8056 5.75239C16.6789 5.54125 16.497 5.36572 16.2779 5.24325V5.24584ZM13.8843 11.5038C13.8305 11.5892 13.7446 11.6514 13.6444 11.6774C13.5442 11.7034 13.4375 11.6913 13.3464 11.6436L9.91192 9.73487L6.48151 11.641C6.39211 11.6747 6.29315 11.6766 6.20242 11.6463C6.1117 11.6161 6.03515 11.5557 5.98654 11.476C5.93793 11.3964 5.92045 11.3026 5.93723 11.2116C5.95401 11.1207 6.00395 11.0384 6.07809 10.9797L9.51926 9.06844V5.27042C9.52102 5.16859 9.5643 5.0715 9.63977 5.00009C9.71523 4.92868 9.81684 4.88867 9.92268 4.88868C10.1419 4.88868 10.2481 5.05949 10.2481 5.27042L10.1715 9.0762L13.739 10.9797C13.8278 11.0315 13.8924 11.1141 13.9194 11.2105C13.9465 11.3069 13.9339 11.4097 13.8843 11.4974V11.5038Z" />
</g>
</svg>
