<svg width="20" height="20" viewBox="0 0 20 20" xmlns="http://www.w3.org/2000/svg">
<g id="Frame">
<path id="Vector" d="M10.4215 5.63455L8.27749 6.86459L5.75654 6.88824L8.27749 4.28625C8.44241 4.12067 8.70157 4.09701 8.93717 4.21529L9.03141 4.28625L10.3743 5.63455L10.4921 5.56359L11.8822 5.51628L9.87958 3.50565C9.2199 2.84333 8.13613 2.81967 7.45288 3.50565L3 7.97635L7.68848 8L12 5.72917L11.8822 5.51628L10.4215 5.63455ZM8.98429 7.7398L10.6099 7.92904L9.17277 7.66884L8.98429 7.7398Z" />
<path id="Vector_2" d="M16 7.88741L14.6057 4.99916C14.1486 4.04549 13.12 3.71852 12.3429 4.26347L8 7.26071L9.69143 7.64218L10.9486 6.77025L12.8229 5.46237C12.8229 5.46237 13.28 5.0809 13.6 5.57136L13.6457 5.6531L14.1943 6.77025H14.1714L14.4914 7.3697L11.1086 7.91465H11.0857L11.4971 7.9964C11.4971 8.02364 16 7.88741 16 7.88741Z" />
<path id="Vector_3" d="M15.8234 7H4.15338C3.50505 7 3.00079 7.50228 3.00079 8.09589V15.8813C2.97678 16.4977 3.50505 17 4.15338 17H15.8474C16.4957 17 17 16.4977 17 15.9041V8.11872C17 7.50228 16.4717 7 15.8234 7ZM13.4702 10.516C13.086 11.5434 12.2696 12.3425 11.189 12.6849C9.26802 13.3242 7.17894 12.3425 6.50659 10.516C6.41054 10.2192 6.57863 9.89954 6.86678 9.80822C7.17894 9.71689 7.51511 9.87671 7.61116 10.1507C7.85129 10.8356 8.4516 11.3836 9.17197 11.6347C10.4686 12.0457 11.8854 11.4064 12.3416 10.1507C12.4376 9.87671 12.7738 9.71689 13.062 9.80822C13.3741 9.92237 13.5422 10.2192 13.4702 10.516Z" />
</g>
</svg>
