<svg width="20" height="20" viewBox="0 0 20 20" xmlns="http://www.w3.org/2000/svg">
<g id="Frame">
<path id="Subtract" fill-rule="evenodd" clip-rule="evenodd" d="M15.0906 4H4.90867C4.40239 4.00022 3.91691 4.21105 3.55899 4.58615C3.20107 4.96125 3 5.46991 3 6.00027V13.9997C3 14.5301 3.20107 15.0387 3.55899 15.4138C3.91691 15.7889 4.40239 15.9998 4.90867 16H15.0913C15.5976 15.9998 16.0831 15.7889 16.441 15.4138C16.7989 15.0387 17 14.5301 17 13.9997V6.00027C17.0001 5.73756 16.9508 5.47741 16.8549 5.23467C16.7589 4.99194 16.6183 4.77139 16.441 4.58563C16.2636 4.39986 16.0531 4.25253 15.8214 4.15204C15.5897 4.05156 15.3413 3.99989 15.0906 4ZM4.47259 7.57099C4.27951 7.39869 4.17091 7.16489 4.17069 6.92102V6.91952C4.17069 6.67565 4.27907 6.44176 4.47199 6.26932C4.66492 6.09688 4.92658 6 5.19941 6C5.47224 6 5.7339 6.09688 5.92682 6.26932C6.11975 6.44176 6.22813 6.67565 6.22813 6.91952C6.22824 7.04027 6.20174 7.15986 6.15014 7.27146C6.09854 7.38306 6.02286 7.48448 5.92741 7.56994C5.83197 7.65539 5.71862 7.7232 5.59386 7.7695C5.46909 7.81581 5.33534 7.83969 5.20025 7.83979C5.06515 7.83988 4.93136 7.8162 4.80651 7.77008C4.68166 7.72396 4.56819 7.65631 4.47259 7.57099ZM4.34627 13.9178C4.45118 13.9717 4.5701 14.0001 4.69112 14H15.3077C15.434 14.0004 15.558 13.9698 15.6662 13.9116C15.7744 13.8533 15.8626 13.7696 15.9212 13.6696C15.9798 13.5696 16.0066 13.4571 15.9986 13.3445C15.9906 13.2318 15.9482 13.1232 15.8759 13.0307L12.8781 9.1773C12.8145 9.0954 12.7296 9.02849 12.6307 8.98229C12.5318 8.93608 12.4219 8.91194 12.3104 8.91194C12.1988 8.91194 12.0889 8.93608 11.99 8.98229C11.8911 9.02849 11.8062 9.0954 11.7426 9.1773L8.56045 13.2681L6.86422 10.6186C6.80371 10.5241 6.71635 10.4456 6.61098 10.3909C6.50561 10.3363 6.38597 10.3076 6.26416 10.3076C6.14236 10.3076 6.02272 10.3363 5.91735 10.3909C5.81198 10.4456 5.72462 10.5241 5.66411 10.6186L4.09107 13.0764C4.031 13.1703 3.9996 13.2766 4 13.3848C4.00041 13.493 4.03261 13.5992 4.09339 13.6927C4.15416 13.7863 4.24137 13.8639 4.34627 13.9178Z" />
</g>
</svg>
