<svg width="20" height="20" viewBox="0 0 20 20" xmlns="http://www.w3.org/2000/svg">
<g id="Frame">
<path id="Vector" d="M2.12558 5.00447C2.12558 5.2675 2.23264 5.52846 2.41793 5.71486C2.60322 5.90126 2.86262 6.00896 3.12406 6.00896C3.3855 6.00896 3.6449 5.90126 3.83019 5.71486C4.01544 5.52846 4.12254 5.2675 4.12254 5.00447C4.12254 4.74144 4.01548 4.48046 3.83019 4.2941C3.64492 4.10769 3.3855 4 3.12406 4C2.86262 4 2.60322 4.10769 2.41793 4.2941C2.2347 4.48046 2.12558 4.74144 2.12558 5.00447ZM2 9.98759C2 10.2506 2.10704 10.5136 2.29235 10.7C2.47762 10.8864 2.73704 10.9941 3.00052 10.9941C3.26196 10.9941 3.52342 10.8864 3.70869 10.7C3.89396 10.5136 4.00104 10.2527 4.00104 9.98759C4.00104 9.72456 3.894 9.46153 3.70869 9.27513C3.52342 9.08872 3.26402 8.98103 3.00052 8.98103C2.73908 8.98103 2.47762 9.08872 2.29235 9.27513C2.10704 9.46151 2 9.72247 2 9.98759ZM2 14.9934C2 15.2565 2.10704 15.5195 2.29235 15.7059C2.47762 15.8923 2.73704 16 3.00052 16C3.26196 16 3.52342 15.8923 3.70869 15.7059C3.89396 15.5195 4.00104 15.2586 4.00104 14.9934C4.00104 14.7304 3.894 14.4674 3.70869 14.281C3.52342 14.0946 3.26402 13.9869 3.00052 13.9869C2.73908 13.9869 2.47762 14.0946 2.29235 14.281C2.10704 14.4695 2 14.7304 2 14.9934ZM18 4.95891C18 5.48912 17.6088 5.91782 17.1251 5.91782H6.7535C6.26972 5.91782 5.87856 5.4891 5.87856 4.95891C5.87856 4.4287 6.26972 4 6.7535 4H17.1251C17.6089 3.99998 18 4.4287 18 4.95891ZM18 9.94203C18 10.4702 17.6088 10.9009 17.1251 10.9009H6.7535C6.26972 10.9009 5.87856 10.4722 5.87856 9.94201C5.87856 9.4118 6.26972 8.98308 6.7535 8.98308H17.1251C17.6089 8.98099 18 9.4118 18 9.94203ZM18 14.9458C18 15.476 17.6088 15.9048 17.1251 15.9048H6.7535C6.26972 15.9048 5.87856 15.476 5.87856 14.9458C5.87856 14.4177 6.26972 13.989 6.7535 13.989H17.1251C17.6089 13.9869 18 14.4177 18 14.9458Z" />
</g>
</svg>
