<svg width="20" height="20" viewBox="0 0 20 20" xmlns="http://www.w3.org/2000/svg">
<g id="Frame">
<path id="Vector" d="M14.8774 10.1759C15.0936 10.1759 15.2942 10.2888 15.4027 10.4736L16.9184 13.0531C16.9719 13.1438 17 13.2467 17 13.3515C17 13.4563 16.9719 13.5592 16.9184 13.6499L15.4027 16.2281C15.3494 16.3187 15.2727 16.394 15.1804 16.4462C15.088 16.4985 14.9833 16.526 14.8767 16.5258H11.844C11.7375 16.5258 11.6329 16.4983 11.5407 16.4461C11.4485 16.3938 11.3719 16.3186 11.3187 16.2281L9.80234 13.6492C9.74913 13.5587 9.72111 13.456 9.72111 13.3515C9.72111 13.247 9.74913 13.1443 9.80234 13.0538L11.3181 10.4736C11.3713 10.383 11.448 10.3077 11.5404 10.2555C11.6327 10.2032 11.7374 10.1757 11.844 10.1759H14.8767H14.8774ZM13.3604 12.1599C13.0386 12.1599 12.73 12.2855 12.5025 12.5089C12.275 12.7324 12.1471 13.0355 12.1471 13.3515C12.1471 13.6675 12.275 13.9706 12.5025 14.1941C12.73 14.4175 13.0386 14.5431 13.3604 14.5431C13.6821 14.5431 13.9907 14.4175 14.2183 14.1941C14.4458 13.9706 14.5736 13.6675 14.5736 13.3515C14.5736 13.0355 14.4458 12.7324 14.2183 12.5089C13.9907 12.2855 13.6821 12.1599 13.3604 12.1599ZM10.2048 10.14C9.73309 10.8894 8.69691 12.6835 8.69691 13.261C8.69691 13.8353 9.56976 15.3272 9.7553 15.5646C9.94019 15.8001 10.2734 16.1228 10.2734 16.4206C10.2734 16.7196 10.0173 17 9.64032 17H5.2003C4.8644 17.0003 4.53291 16.925 4.23127 16.7798C3.92963 16.6347 3.66586 16.4236 3.46021 16.1628C3.25456 15.9019 3.1125 15.5983 3.04494 15.2751C2.97737 14.952 2.9861 14.6179 3.07044 14.2986C3.62708 12.1849 5.09903 10.6276 7.43207 9.6324C6.91033 9.27185 6.49193 8.78541 6.21716 8.21995C5.94239 7.6545 5.82052 7.02907 5.86329 6.40392C5.90605 5.77878 6.11201 5.17499 6.46133 4.65071C6.81065 4.12643 7.29154 3.69934 7.8577 3.41058C8.42385 3.12182 9.05618 2.98112 9.69376 3.00203C10.3314 3.02295 10.9527 3.20478 11.498 3.53C12.0433 3.85522 12.4941 4.31287 12.807 4.85887C13.1199 5.40487 13.2844 6.02082 13.2846 6.64737C13.2846 8.63333 11.5075 10.138 10.2041 10.138L10.2054 10.14H10.2048Z" />
</g>
</svg>
