<svg width="20" height="20" viewBox="0 0 20 20" xmlns="http://www.w3.org/2000/svg">
<g id="Frame">
<path id="Vector" d="M17 15.4481V17H3V15.4481H3.77778V6.40811C3.77903 6.09862 3.87301 5.79657 4.04764 5.54077C4.22227 5.28496 4.46957 5.0871 4.75778 4.97258L9.42444 3.11028C9.66301 3.01542 9.9214 2.98097 10.1766 3.00999C10.4317 3.03902 10.6757 3.13062 10.8868 3.27662C11.0978 3.42261 11.2693 3.61847 11.386 3.8467C11.5027 4.07494 11.561 4.32845 11.5556 4.5846V15.4481H13.1111V8.31698C13.111 8.25105 13.1277 8.18617 13.1597 8.12846C13.1917 8.07076 13.2378 8.02214 13.2939 7.9872C13.3499 7.95225 13.414 7.93213 13.48 7.92874C13.546 7.92534 13.6118 7.93879 13.6711 7.9678L16.0044 9.13174C16.0693 9.16445 16.124 9.21431 16.1624 9.27589C16.2008 9.33747 16.2215 9.4084 16.2222 9.48092V15.4481H17ZM10 11.5683H5.33333V13.1202H10V11.5683ZM10 7.68845H5.33333V9.24038H10V7.68845Z" />
</g>
</svg>
