<?xml version="1.0" encoding="UTF-8"?>
<svg width="16px" height="16px" viewBox="0 0 16 16" version="1.1" xmlns="http://www.w3.org/2000/svg" xmlns:xlink="http://www.w3.org/1999/xlink">
    <title>编组</title>
    <g id="企业后台（中控/代理）" stroke="none" stroke-width="1" fill="none" fill-rule="evenodd">
        <g id="代理后台-费用管理-账户信息" transform="translate(-352.000000, -393.000000)" fill="#8C8C8C" fill-rule="nonzero">
            <g id="编组-8" transform="translate(312.000000, 216.000000)">
                <g id="编组-4" transform="translate(20.000000, 24.000000)">
                    <g id="编组" transform="translate(20.000000, 153.000000)">
                        <path d="M8,16 C3.5824,16 0,12.4176 0,8 C0,3.5824 3.5824,0 8,0 C12.4176,0 16,3.5824 16,8 C16,12.4176 12.4176,16 8,16 Z M8,0.9072 C4.0832,0.9072 0.9072,4.0816 0.9072,8 C0.9072,11.9168 4.0832,15.0928 8,15.0928 C11.9168,15.0928 15.0928,11.9168 15.0928,8 C15.0928,4.0832 11.9168,0.9072 8,0.9072 Z M12.0976,10.0064 C11.9872,10.2416 11.7056,10.344 11.4704,10.2336 L7.7104,8.976 C7.5312,8.8928 7.4304,8.7088 7.44,8.5232 C7.4384,8.504 7.4288,8.488 7.4288,8.4688 L7.4288,3.2752 C7.4288,3.0144 7.64,2.8032 7.9008,2.8032 C8.1616,2.8032 8.3728,3.0144 8.3728,3.2752 L8.3728,8.208 L11.8688,9.3776 C12.1072,9.488 12.208,9.7696 12.0976,10.0064 L12.0976,10.0064 Z" id="形状"></path>
                    </g>
                </g>
            </g>
        </g>
    </g>
</svg>