<?xml version="1.0" encoding="UTF-8"?>
<svg width="302px" height="163px" viewBox="0 0 302 163" version="1.1" xmlns="http://www.w3.org/2000/svg" xmlns:xlink="http://www.w3.org/1999/xlink">
    <title>编组 4</title>
    <defs>
        <rect id="path-1" x="0" y="0" width="302" height="163" rx="10"></rect>
        <mask id="mask-2" maskContentUnits="userSpaceOnUse" maskUnits="objectBoundingBox" x="0" y="0" width="302" height="163" fill="white">
            <use xlink:href="#path-1"></use>
        </mask>
    </defs>
    <g id="企业端所有页面" stroke="none" stroke-width="1" fill="none" fill-rule="evenodd">
        <g id="注册-认证" transform="translate(-240.000000, -288.000000)">
            <g id="编组-4" transform="translate(240.000000, 288.000000)">
                <g id="编组" transform="translate(124.000000, 30.000000)" fill="#D9D9D9" fill-rule="nonzero">
                    <path d="M2.13735722,0.183165127 C1.16400627,0.510827847 0.470132323,1.16615323 0.132832505,2.05276991 C-0.00208742262,2.41898119 -0.0117245761,4.50060302 0.00754967572,22.9942713 L0.0364611354,43.5310128 L3.15889388,32.2459239 C5.61636414,23.3508454 6.3680609,20.7777295 6.68608647,20.0934927 C7.91000302,17.4625539 10.8204188,15.3616578 14.3957971,14.5232268 C15.2535023,14.3208469 15.369148,14.3208469 31.9257515,14.2919355 L48.5883634,14.2533869 L48.5305406,12.933099 C48.4823549,11.4489797 48.2992493,10.6972829 47.721021,9.63719769 C46.7862186,7.91214993 45.3695593,6.72678193 43.4517688,6.0521823 L42.5362406,5.73415673 L32.3208741,5.70524533 L22.1055076,5.67633392 L21.1417938,4.26931173 C19.6384002,2.08168137 18.8963406,1.37817028 17.3254871,0.636110622 C15.9570134,-0.0192147642 16.1497562,0 9.04718536,0 C3.13961963,0.00969664175 2.59993992,0.0193337401 2.13735722,0.183165127 Z" id="路径"></path>
                    <path d="M16.6123388,17.3469083 C13.7115602,17.9636851 11.0517101,19.76583 9.92416494,21.8763632 C9.7314222,22.2425745 8.2762143,27.0418693 5.56817843,36.2453363 C1.74223459,49.26511 1.50130609,50.1228154 1.46275758,50.9805206 C1.40493477,52.0213316 1.57840326,52.6284713 2.14699437,53.4572652 C2.54211706,54.0354934 3.61183938,54.8546502 4.37317328,55.1630386 C5.78983258,55.7316298 4.73938456,55.7029647 25.0255605,55.7029647 C45.2539136,55.7029647 44.3191112,55.7316298 46.0056104,55.1630386 C47.7692067,54.5848103 49.7351829,53.2934338 50.6988967,52.0984287 C50.9494623,51.7900403 51.2963992,51.2503605 51.4795049,50.8937864 C51.7300705,50.4312037 52.8865271,46.5859856 55.8258542,36.5537247 C58.0423961,29.0078455 59.8927266,22.5798743 59.9505494,22.2618488 C60.0180094,21.8474518 60.0180094,21.510152 59.9409122,21.0764808 C59.6517981,19.4092559 58.4182444,18.1467908 56.4137197,17.4625539 L55.6427486,17.2023512 L36.5612149,17.1830769 C18.154281,17.1638027 17.4507699,17.1734398 16.6123388,17.3469083 Z M35.2120156,27.8706632 C38.8066681,30.5690619 40.9942985,32.3037468 41.1388556,32.5639495 C41.2834127,32.8530637 41.3508726,33.6722204 41.2448641,33.9420603 L41.1388556,34.2119002 L37.0912575,34.2119002 L37.0912575,39.0401064 C37.0912575,42.4709276 37.0623461,43.9839583 36.9756119,44.2537981 C36.9177891,44.4658152 36.6961349,44.803115 36.4841178,45.0151321 C35.8384295,45.6608204 35.664961,45.6800946 31.2607889,45.6800946 L27.3962965,45.6800946 L26.9048025,45.4391662 C26.384397,45.1789634 25.9700001,44.6874694 25.8158058,44.1285154 C25.757983,43.9357726 25.7194345,41.8445136 25.7194344,39.011195 L25.7194344,34.2119002 L23.7920068,34.2119002 C21.8645792,34.2119002 21.854942,34.2119002 21.6236507,33.9709717 C21.3345366,33.6914947 21.3152623,33.363832 21.5658279,32.8819751 C21.8163935,32.390481 22.134419,32.111004 24.9484634,29.8559137 C28.0708962,27.3502578 29.8537668,26.0203327 30.5765521,25.6444843 C31.5884516,25.1048045 31.405346,25.0180703 35.2120156,27.8706632 L35.2120156,27.8706632 Z" id="形状"></path>
                </g>
                <use id="矩形" stroke="#D9D9D9" mask="url(#mask-2)" stroke-width="2" stroke-dasharray="6" xlink:href="#path-1"></use>
            </g>
        </g>
    </g>
</svg>