<svg width="20" height="20" viewBox="0 0 20 20" xmlns="http://www.w3.org/2000/svg">
<g id="Frame">
<path id="Vector" d="M15.9992 14.5851C16.0145 15.2016 15.808 15.804 15.4153 16.2884C15.2535 16.5069 15.041 16.6853 14.795 16.809C14.549 16.9326 14.2764 16.9981 13.9994 17H6.00038C5.72406 16.9978 5.45218 16.9322 5.20685 16.8085C4.96152 16.6848 4.74968 16.5066 4.58855 16.2884C4.19503 15.8042 3.98715 15.202 4.00062 14.5851C3.99727 14.0927 4.02398 13.6005 4.08061 13.1112C4.13574 12.6407 4.2348 12.176 4.37657 11.7229C4.50209 11.3073 4.68651 10.9108 4.92451 10.5446C5.14751 10.2098 5.44908 9.93125 5.8044 9.73186C6.18929 9.51923 6.62563 9.41048 7.06826 9.41687C7.45128 9.79281 7.90827 10.0899 8.41196 10.2903C8.91565 10.4908 9.45572 10.5905 9.99991 10.5835C10.5448 10.591 11.0856 10.4915 11.59 10.2911C12.0944 10.0906 12.5521 9.79329 12.9356 9.41687C13.3784 9.40875 13.8152 9.51762 14.1994 9.73186C14.5538 9.93242 14.8552 10.2107 15.0793 10.5446C15.3183 10.9144 15.5028 11.315 15.6273 11.7346C15.7687 12.1838 15.8678 12.6446 15.9232 13.1112C15.9764 13.6008 16.0018 14.0928 15.9992 14.5851ZM12.5436 4.02701C12.884 4.34729 13.1533 4.73198 13.3349 5.15735C13.5165 5.58273 13.6066 6.03977 13.5995 6.50028C13.6066 6.9608 13.5165 7.41784 13.3349 7.84321C13.1533 8.26859 12.884 8.65328 12.5436 8.97355C12.2142 9.30453 11.8186 9.56638 11.3811 9.74295C10.9436 9.91952 10.4735 10.0071 9.99991 10.0002C9.52628 10.0071 9.05623 9.91952 8.61874 9.74295C8.18125 9.56638 7.7856 9.30453 7.45621 8.97355C7.11581 8.65328 6.8465 8.26859 6.6649 7.84321C6.4833 7.41784 6.39326 6.9608 6.40033 6.50028C6.39326 6.03977 6.4833 5.58273 6.6649 5.15735C6.8465 4.73198 7.11581 4.34729 7.45621 4.02701C7.7856 3.69604 8.18125 3.43419 8.61874 3.25762C9.05623 3.08105 9.52628 2.9935 9.99991 3.00038C10.4735 2.9935 10.9436 3.08105 11.3811 3.25762C11.8186 3.43419 12.2142 3.69604 12.5436 4.02701Z" />
</g>
</svg>
